<svg xmlns="http://www.w3.org/2000/svg" viewBox="0 0 128 128">
  <title>Rose window of the Fortran Cathedral</title>
  <circle cx="64" cy="64" r="58" fill="none" stroke="#ffb000" stroke-width="4"/>
  <circle cx="64" cy="64" r="42" fill="none" stroke="#ffb000" stroke-width="2"/>
  <rect x="61" y="12" width="6" height="15" rx="2" fill="#ffb000" transform="rotate(0 64 64)"/>
  <rect x="61" y="12" width="6" height="15" rx="2" fill="#ffb000" transform="rotate(30 64 64)"/>
  <rect x="61" y="12" width="6" height="15" rx="2" fill="#ffb000" transform="rotate(60 64 64)"/>
  <rect x="61" y="12" width="6" height="15" rx="2" fill="#ffb000" transform="rotate(90 64 64)"/>
  <rect x="61" y="12" width="6" height="15" rx="2" fill="#ffb000" transform="rotate(120 64 64)"/>
  <rect x="61" y="12" width="6" height="15" rx="2" fill="#ffb000" transform="rotate(150 64 64)"/>
  <rect x="61" y="12" width="6" height="15" rx="2" fill="#ffb000" transform="rotate(180 64 64)"/>
  <rect x="61" y="12" width="6" height="15" rx="2" fill="#ffb000" transform="rotate(210 64 64)"/>
  <rect x="61" y="12" width="6" height="15" rx="2" fill="#ffb000" transform="rotate(240 64 64)"/>
  <rect x="61" y="12" width="6" height="15" rx="2" fill="#ffb000" transform="rotate(270 64 64)"/>
  <rect x="61" y="12" width="6" height="15" rx="2" fill="#ffb000" transform="rotate(300 64 64)"/>
  <rect x="61" y="12" width="6" height="15" rx="2" fill="#ffb000" transform="rotate(330 64 64)"/>
  <circle cx="64.00" cy="36.00" r="3.5" fill="#ffb000"/>
  <circle cx="83.80" cy="44.20" r="3.5" fill="#ffb000"/>
  <circle cx="92.00" cy="64.00" r="3.5" fill="#ffb000"/>
  <circle cx="83.80" cy="83.80" r="3.5" fill="#ffb000"/>
  <circle cx="64.00" cy="92.00" r="3.5" fill="#ffb000"/>
  <circle cx="44.20" cy="83.80" r="3.5" fill="#ffb000"/>
  <circle cx="36.00" cy="64.00" r="3.5" fill="#ffb000"/>
  <circle cx="44.20" cy="44.20" r="3.5" fill="#ffb000"/>
  <circle cx="64" cy="64" r="8" fill="#ffb000"/>
</svg>
